<svg xmlns="http://www.w3.org/2000/svg" viewBox="0 0 470.53 164.94"><defs><style>.cls-1{fill:#fff;}.cls-2{fill:#3e00ff;}</style></defs><title>Asset 30000</title><g id="Layer_2" data-name="Layer 2"><g id="Layer_1-2" data-name="Layer 1"><rect class="cls-1" y="82.47" width="470.53" height="82.47"/><path class="cls-2" d="M34.5,139.73l-6.19-32.15v-.09a.38.38,0,0,1,.43-.43h1.65c.32,0,.49.14.52.43l4.87,26.8c0,.06.06.1.1.1s.06,0,.09-.1l4.11-26.8a.43.43,0,0,1,.48-.43H42a.43.43,0,0,1,.47.43l4.35,26.8c0,.06.07.1.1.1s.06,0,.09-.1l4.45-26.8a.46.46,0,0,1,.47-.43H53.6a.46.46,0,0,1,.36.14.44.44,0,0,1,.07.38l-5.86,32.15c0,.28-.21.42-.52.42H46.13a.46.46,0,0,1-.47-.42L41.41,113c0-.06-.07-.1-.1-.1s-.06,0-.09.1L37,139.73a.42.42,0,0,1-.47.42H35A.49.49,0,0,1,34.5,139.73Z"/><path class="cls-2" d="M75,109.28H63.82a.17.17,0,0,0-.19.19v12.81a.17.17,0,0,0,.19.19H71a.42.42,0,0,1,.47.48v1.27a.41.41,0,0,1-.47.47H63.82a.17.17,0,0,0-.19.19v12.86a.17.17,0,0,0,.19.19H75a.42.42,0,0,1,.47.47v1.28a.41.41,0,0,1-.47.47H61.59a.41.41,0,0,1-.47-.47V107.53a.42.42,0,0,1,.47-.47H75a.42.42,0,0,1,.47.47v1.28A.42.42,0,0,1,75,109.28Z"/><path class="cls-2" d="M84.33,107.58l-2.64,8.51a.57.57,0,0,1-.57.38H80a.44.44,0,0,1-.35-.14.41.41,0,0,1-.07-.38l2.22-8.46a.48.48,0,0,1,.52-.43H84C84.3,107.06,84.43,107.23,84.33,107.58Z"/><path class="cls-2" d="M102.91,139.77l-5.2-15.08a.18.18,0,0,0-.19-.14H92.84a.17.17,0,0,0-.19.19v14.94a.41.41,0,0,1-.47.47H90.62a.41.41,0,0,1-.47-.47V107.44a.41.41,0,0,1,.47-.47H98a6.59,6.59,0,0,1,5.34,2.45,9.75,9.75,0,0,1,2,6.43,10.1,10.1,0,0,1-1.37,5.44,6.69,6.69,0,0,1-3.78,3c-.16.06-.21.14-.14.24l5.39,15.12,0,.19q0,.33-.42.33h-1.56A.55.55,0,0,1,102.91,139.77ZM92.65,109.42v12.86a.17.17,0,0,0,.19.19h4.82a4.55,4.55,0,0,0,3.74-1.79,7.53,7.53,0,0,0,1.42-4.78,7.68,7.68,0,0,0-1.42-4.84,4.51,4.51,0,0,0-3.74-1.83H92.84A.17.17,0,0,0,92.65,109.42Z"/><path class="cls-2" d="M126.55,109.28h-11.2a.17.17,0,0,0-.19.19v12.81a.17.17,0,0,0,.19.19h7.18a.42.42,0,0,1,.47.48v1.27a.41.41,0,0,1-.47.47h-7.18a.17.17,0,0,0-.19.19v12.86a.17.17,0,0,0,.19.19h11.2a.42.42,0,0,1,.47.47v1.28a.41.41,0,0,1-.47.47H113.12a.41.41,0,0,1-.47-.47V107.53a.42.42,0,0,1,.47-.47h13.43a.42.42,0,0,1,.47.47v1.28A.42.42,0,0,1,126.55,109.28Z"/><path class="cls-2" d="M146.07,139.68V107.53a.42.42,0,0,1,.48-.47h1.56a.42.42,0,0,1,.47.47v32.15a.41.41,0,0,1-.47.47h-1.56A.42.42,0,0,1,146.07,139.68Z"/><path class="cls-2" d="M157.94,139.68V107.53a.42.42,0,0,1,.47-.47h1.66a.53.53,0,0,1,.52.38l10.26,25.95c0,.1.08.14.14.12s.09-.07.09-.16V107.53a.42.42,0,0,1,.48-.47h1.51a.41.41,0,0,1,.47.47v32.15a.41.41,0,0,1-.47.47h-1.65a.5.5,0,0,1-.52-.38l-10.26-26c0-.09-.08-.13-.15-.11s-.09.07-.09.16l0,25.86a.42.42,0,0,1-.48.47h-1.56A.41.41,0,0,1,157.94,139.68Z"/><path class="cls-2" d="M195.22,138.24a8.51,8.51,0,0,1-2.11-6v-1a.42.42,0,0,1,.48-.47h1.51a.41.41,0,0,1,.47.47v.94a6.85,6.85,0,0,0,1.42,4.5,4.54,4.54,0,0,0,3.64,1.7,4.71,4.71,0,0,0,3.69-1.66,6.22,6.22,0,0,0,1.47-4.3,6.31,6.31,0,0,0-.69-3,8,8,0,0,0-1.77-2.22q-1.1-.95-3.5-2.74c-1.61-1.2-2.85-2.21-3.74-3a9.74,9.74,0,0,1-2.15-2.9,9,9,0,0,1-.83-4,7.83,7.83,0,0,1,2-5.72,7.67,7.67,0,0,1,10.75.24,8.85,8.85,0,0,1,2.06,6.1v1.18a.42.42,0,0,1-.47.47H206a.42.42,0,0,1-.47-.47V115.1a6.87,6.87,0,0,0-1.42-4.52,4.53,4.53,0,0,0-3.68-1.72,4.46,4.46,0,0,0-3.48,1.49,6,6,0,0,0-1.35,4.18,6.37,6.37,0,0,0,.57,2.79,7.6,7.6,0,0,0,1.7,2.24,40.78,40.78,0,0,0,3.36,2.72q2.79,2.09,4.18,3.36a9.27,9.27,0,0,1,2.13,2.79,8.26,8.26,0,0,1,.73,3.64,8.78,8.78,0,0,1-2.1,6.14,7.62,7.62,0,0,1-10.92,0Z"/><path class="cls-2" d="M229.23,107.53v1.28a.41.41,0,0,1-.47.47h-6.29a.17.17,0,0,0-.19.19v30.21a.41.41,0,0,1-.47.47h-1.56a.41.41,0,0,1-.47-.47V109.47a.17.17,0,0,0-.19-.19h-5.91a.42.42,0,0,1-.47-.47v-1.28a.42.42,0,0,1,.47-.47h15.08A.41.41,0,0,1,229.23,107.53Z"/><path class="cls-2" d="M250.46,109.28h-11.2a.17.17,0,0,0-.19.19v12.81a.17.17,0,0,0,.19.19h7.18a.42.42,0,0,1,.48.48v1.27a.42.42,0,0,1-.48.47h-7.18a.17.17,0,0,0-.19.19v12.86a.17.17,0,0,0,.19.19h11.2a.41.41,0,0,1,.47.47v1.28a.41.41,0,0,1-.47.47H237a.41.41,0,0,1-.47-.47V107.53a.42.42,0,0,1,.47-.47h13.43a.41.41,0,0,1,.47.47v1.28A.41.41,0,0,1,250.46,109.28Z"/><path class="cls-2" d="M272.73,139.73l-1.28-6.19a.16.16,0,0,0-.07-.15.31.31,0,0,0-.17,0H262a.29.29,0,0,0-.16,0,.16.16,0,0,0-.07.15l-1.33,6.19c0,.28-.2.42-.52.42h-1.55a.4.4,0,0,1-.43-.52l7.19-32.14a.48.48,0,0,1,.51-.43h1.9a.46.46,0,0,1,.52.43l7.23,32.14v.1a.37.37,0,0,1-.43.42h-1.6A.48.48,0,0,1,272.73,139.73Zm-10.45-8.54a.16.16,0,0,0,.14.08h8.32c.1,0,.14-.07.14-.19l-4.16-19.72c0-.09-.06-.14-.09-.14s-.06,0-.1.14l-4.25,19.72A.08.08,0,0,0,262.28,131.19Z"/><path class="cls-2" d="M282.7,139.68V107.53a.42.42,0,0,1,.47-.47h1.57a.42.42,0,0,1,.47.47v30.21a.17.17,0,0,0,.19.19h11.06a.42.42,0,0,1,.47.47v1.28a.41.41,0,0,1-.47.47H283.17A.41.41,0,0,1,282.7,139.68Z"/><path class="cls-2" d="M315.09,107.53v1.28a.42.42,0,0,1-.48.47h-6.28a.17.17,0,0,0-.19.19v30.21a.42.42,0,0,1-.48.47H306.1a.41.41,0,0,1-.47-.47V109.47a.17.17,0,0,0-.19-.19h-5.91a.42.42,0,0,1-.47-.47v-1.28a.42.42,0,0,1,.47-.47h15.08A.42.42,0,0,1,315.09,107.53Z"/><path class="cls-2" d="M335.13,107.06h1.56a.41.41,0,0,1,.47.47v32.15a.41.41,0,0,1-.47.47h-1.56a.41.41,0,0,1-.47-.47v-14.8a.17.17,0,0,0-.19-.19h-9.36a.17.17,0,0,0-.19.19v14.8a.41.41,0,0,1-.47.47h-1.56a.42.42,0,0,1-.48-.47V107.53a.42.42,0,0,1,.48-.47h1.56a.42.42,0,0,1,.47.47v14.75a.17.17,0,0,0,.19.19h9.36a.17.17,0,0,0,.19-.19V107.53A.42.42,0,0,1,335.13,107.06Z"/><path class="cls-2" d="M357.82,139.68V107.53a.42.42,0,0,1,.48-.47h1.6a.51.51,0,0,1,.52.38l5.68,13.8a.15.15,0,0,0,.28,0l5.67-13.8a.53.53,0,0,1,.52-.38h1.61a.41.41,0,0,1,.47.47v32.15a.41.41,0,0,1-.47.47h-1.56a.41.41,0,0,1-.47-.47V113.44c0-.09,0-.14-.1-.14a.15.15,0,0,0-.14.09l-5.1,12.2a.51.51,0,0,1-.48.38.53.53,0,0,1-.52-.38l-5.24-12.2a.16.16,0,0,0-.15-.09c-.06,0-.09,0-.09.14v26.24a.41.41,0,0,1-.47.47H358.3A.42.42,0,0,1,357.82,139.68Z"/><path class="cls-2" d="M385.31,138.33a7.87,7.87,0,0,1-2.15-5.74V114.67a8,8,0,0,1,2.13-5.79,7.46,7.46,0,0,1,5.63-2.2,7.61,7.61,0,0,1,5.67,2.2,7.89,7.89,0,0,1,2.17,5.79v17.92a7.8,7.8,0,0,1-2.17,5.74,7.61,7.61,0,0,1-5.67,2.2A7.5,7.5,0,0,1,385.31,138.33Zm9.46-1.58a5.67,5.67,0,0,0,1.49-4.07v-18.1a5.73,5.73,0,0,0-1.49-4.09,5,5,0,0,0-3.85-1.59,4.92,4.92,0,0,0-3.79,1.59,5.8,5.8,0,0,0-1.46,4.09v18.1a5.74,5.74,0,0,0,1.46,4.07,5,5,0,0,0,3.79,1.56A5.09,5.09,0,0,0,394.77,136.75Z"/><path class="cls-2" d="M407.23,139.68V107.53a.41.41,0,0,1,.47-.47h6.95a6.94,6.94,0,0,1,5.53,2.34,9.34,9.34,0,0,1,2,6.36v15.69a9.34,9.34,0,0,1-2,6.36,6.94,6.94,0,0,1-5.53,2.34H407.7A.41.41,0,0,1,407.23,139.68Zm2.69-1.75h4.73a4.52,4.52,0,0,0,3.66-1.77,7.54,7.54,0,0,0,1.35-4.75V115.85a7.71,7.71,0,0,0-1.35-4.82,4.44,4.44,0,0,0-3.71-1.75h-4.68a.17.17,0,0,0-.19.19v28.27A.17.17,0,0,0,409.92,137.93Z"/><path class="cls-2" d="M444.53,109.28H433.32a.17.17,0,0,0-.19.19v12.81a.17.17,0,0,0,.19.19h7.19a.42.42,0,0,1,.47.48v1.27a.41.41,0,0,1-.47.47h-7.19a.17.17,0,0,0-.19.19v12.86a.17.17,0,0,0,.19.19h11.21a.42.42,0,0,1,.47.47v1.28a.41.41,0,0,1-.47.47H431.1a.41.41,0,0,1-.47-.47V107.53a.42.42,0,0,1,.47-.47h13.43a.42.42,0,0,1,.47.47v1.28A.42.42,0,0,1,444.53,109.28Z"/><rect class="cls-2" width="470.53" height="82.47"/><g id="SPACFING"><g id="PixelPerfect-Big"><path class="cls-1" d="M66.92,20.39V65H60.59l-18-26.08V65.21H33.25V20.39h9.37L57.56,44.45V20.39Z"/><path class="cls-1" d="M102.12,55.84V65H76V20.39h26.08v9.12H85.41v7.6h14.94v9.37H85.41v9.36Z"/><path class="cls-1" d="M136.17,65l-7.33-12.41L121.48,65H110.34L123,42.68,110.34,20.39h11.14l7.36,12.41,7.33-12.41h11.14L134.65,42.68,147.31,65Z"/><path class="cls-1" d="M187.71,29.51H176.56V65h-9.11V29.51h-11.4V20.39h31.66Z"/><path class="cls-1" d="M197,54.5l2.92-1.71c1.53,5.33,6,9,13.35,9s11.17-3.82,11.17-8.9c0-5.33-4.69-7.37-11.49-9.53-7.44-2.41-14.11-4.51-14.11-12.26,0-7.3,5.91-11.94,13.47-11.94a14.92,14.92,0,0,1,14.29,9.34L223.75,30a11.69,11.69,0,0,0-11.44-7.68c-6.16,0-10,3.62-10,8.57,0,5.34,4.51,7,10.87,9.09,7.88,2.6,14.74,5.08,14.74,12.77,0,7.37-5.77,12.17-14.6,12.17C205,65,199,60.79,197,54.5Z"/><path class="cls-1" d="M242.7,20.39V65h-3.55V20.39Z"/><path class="cls-1" d="M296.63,20.39V65h-3.54V20.39Z"/><path class="cls-1" d="M283.72,61.41V65H257.64V20.39h3.79v41Z"/><path class="cls-1" d="M307.69,42.05c0-12.7,9.6-22.93,23.13-22.93a21.71,21.71,0,0,1,19.06,10.67l-3,1.72a18.1,18.1,0,0,0-16.07-9.15c-11.69,0-19.76,8.76-19.76,19.69s8.07,19.7,19.76,19.7A18.16,18.16,0,0,0,347,52.41l3,1.71A21.79,21.79,0,0,1,330.75,65C317.22,65,307.69,54.76,307.69,42.05Z"/><path class="cls-1" d="M358.82,42.05A22.94,22.94,0,1,1,381.73,65,22.8,22.8,0,0,1,358.82,42.05Zm42.5,0a19.57,19.57,0,1,0-39.14,0,19.57,19.57,0,1,0,39.14,0Z"/><path class="cls-1" d="M449,20.39V65h-3.8L419.09,26V65h-3.54V20.39h3.8l25.82,37.23V20.39Z"/></g></g></g></g></svg>