<?xml version="1.0" encoding="UTF-8"?>
<svg width="173px" height="24px" viewBox="0 0 173 24" version="1.1" xmlns="http://www.w3.org/2000/svg" xmlns:xlink="http://www.w3.org/1999/xlink">
    <!-- Generator: Sketch 55.2 (78181) - https://sketchapp.com -->
    <title>NS-Full-Horizontal-White</title>
    <desc>Created with Sketch.</desc>
    <g id="Pages" stroke="none" stroke-width="1" fill="none" fill-rule="evenodd">
        <g id="Desktop" transform="translate(-45.000000, -47.000000)" fill="#FFFFFF">
            <g id="Group-6" transform="translate(45.000000, 29.000000)">
                <g id="NS-Full-Horizontal-White" transform="translate(0.000000, 18.000000)">
                    <g id="Group">
                        <g id="NextSilicon-Icon-Copy" fill-rule="nonzero">
                            <polygon id="Path" points="9.37489156 10.9696 2.26648362 7.796 19.7173696 0 37.1634656 7.7928 30.0574527 10.9688 19.7173696 6.3496"></polygon>
                            <polygon id="Path" points="39.4115874 8.7904 39.4115874 15.136 19.7053946 23.9384 0 15.136 0 8.7904 19.7053946 17.592"></polygon>
                        </g>
                        <g id="NextSilicon-Logotype-Copy" transform="translate(48.778496, 4.653886)" fill-rule="nonzero">
                            <polygon id="Path" points="9.81956622 0.386114193 9.81956622 13.3524419 7.9737831 13.3524419 2.73175902 5.76419329 2.73175902 13.4261142 0 13.4261142 0 0.386114193 2.73175902 0.386114193 7.0878072 7.38498425 7.0878072 0.386114193"></polygon>
                            <polygon id="Path" points="20.1181357 10.7588415 20.1181357 13.4261142 12.5339179 13.4261142 12.5339179 0.386114193 20.1181357 0.386114193 20.1181357 3.05338692 15.2583456 3.05338692 15.2583456 5.27611419 19.6027034 5.27611419 19.6027034 8.01747783 15.2583456 8.01747783 15.2583456 10.7588415"></polygon>
                            <polygon id="Path" points="29.8031873 13.4261142 27.6624365 9.64747783 25.5216858 13.4261142 22.2736502 13.4261142 26.0384187 6.60975056 22.2736502 0.386114193 25.5216858 0.386114193 27.6624365 4.16475056 29.8031873 0.386114193 33.0512229 0.386114193 29.2864543 6.60975056 33.0512229 13.4261142"></polygon>
                            <polygon id="Path" points="45.0263036 3.05338692 41.766527 3.05338692 41.766527 13.4261142 39.099437 13.4261142 39.099437 3.05338692 35.7655745 3.05338692 35.7655745 0.386114193 45.0263036 0.386114193"></polygon>
                            <path d="M47.7406553,10.3728213 L48.5868393,9.87500186 C49.0267964,11.4289362 50.3349353,12.483576 52.4503954,12.483576 C54.6032519,12.483576 55.687746,11.3773104 55.687746,9.89343961 C55.687746,8.3387678 54.3268122,7.74654698 52.3580044,7.11745065 C50.2058812,6.41312827 48.2752031,5.8024697 48.2752031,3.54495052 C48.2752031,1.41723316 49.9851695,0.066114193 52.174689,0.066114193 C54.2879493,0.066114193 55.687746,1.28743133 56.3132183,2.78605237 L55.4853658,3.24847136 C55.0072791,2.083205 54.0144427,1.01012744 52.174689,1.01012744 C50.3891967,1.01012744 49.2680395,2.06476724 49.2680395,3.508075 C49.2680395,5.06200931 50.5739786,5.54360357 52.4137323,6.15426214 C54.6949096,6.91242278 56.6820489,7.63444541 56.6820489,9.87352683 C56.6820489,12.019682 55.0072791,13.4261142 52.4503954,13.4261142 C50.0401641,13.4261142 48.3294645,12.2047971 47.7406553,10.3728213 Z" id="Path"></path>
                            <polygon id="Path" points="61.7115828 0.386114193 61.7115828 13.4261142 60.7535764 13.4261142 60.7535764 0.386114193"></polygon>
                            <polygon id="Path" points="77.4388556 0.386114193 77.4388556 13.4261142 76.4808491 13.4261142 76.4808491 0.386114193"></polygon>
                            <polygon id="Path" points="73.6866636 12.3888415 73.6866636 13.4261142 66.1024458 13.4261142 66.1024458 0.386114193 67.2069435 0.386114193 67.2069435 12.3888415"></polygon>
                            <path d="M81.7498846,6.74574544 C81.7498846,3.04565601 84.5373154,0.066114193 88.4687037,0.066114193 C90.8493123,0.066114193 92.9349196,1.28743133 94.0060464,3.17472032 L93.1386985,3.67475234 C92.2897423,2.083205 90.4991362,1.01012744 88.4687037,1.01012744 C85.0728788,1.01012744 82.7305247,3.56338828 82.7305247,6.74574544 C82.7305247,9.9281026 85.0750858,12.4821009 88.4687037,12.4821009 C90.5175278,12.4821009 92.3265255,11.3905856 93.1769531,9.76216277 L94.0443009,10.2614573 C92.9930371,12.1679215 90.8875668,13.4261142 88.470175,13.4261142 C84.5373154,13.4261142 81.7498846,10.4465724 81.7498846,6.74574544 Z" id="Path"></path>
                            <path d="M97.1578219,6.74611419 C97.1578219,3.05685206 100.142349,0.066114193 103.82395,0.066114193 C107.505551,0.066114193 110.490078,3.05685206 110.490078,6.74611419 C110.490078,10.4353763 107.505551,13.4261142 103.82395,13.4261142 C100.142349,13.4261142 97.1578219,10.4353763 97.1578219,6.74611419 Z M109.511281,6.74611419 C109.511281,3.5639327 107.018658,1.0108128 103.82395,1.0108128 C100.629242,1.0108128 98.1366197,3.5639327 98.1366197,6.74611419 C98.1366197,9.92829569 100.629978,12.4821531 103.82395,12.4821531 C107.017922,12.4821531 109.511281,9.92903316 109.511281,6.74611419 Z" id="Shape"></path>
                            <polygon id="Path" points="124.221504 0.386114193 124.221504 13.4261142 123.114717 13.4261142 115.514774 2.01611419 115.514774 13.4261142 114.481772 13.4261142 114.481772 0.386114193 115.58856 0.386114193 123.114717 11.2774778 123.114717 0.386114193"></polygon>
                        </g>
                    </g>
                </g>
            </g>
        </g>
    </g>
</svg>