<?xml version="1.0" encoding="UTF-8"?>
<svg width="241px" height="145px" viewBox="0 0 241 145" version="1.1" xmlns="http://www.w3.org/2000/svg" xmlns:xlink="http://www.w3.org/1999/xlink">
    <!-- Generator: Sketch 55.2 (78181) - https://sketchapp.com -->
    <title>Group 4</title>
    <desc>Created with Sketch.</desc>
    <g id="Pages" stroke="none" stroke-width="1" fill="none" fill-rule="evenodd">
        <g id="Desktop-Copy" transform="translate(-111.000000, -660.000000)">
            <g id="Group-4" transform="translate(231.500000, 732.500000) rotate(-360.000000) translate(-231.500000, -732.500000) translate(111.000000, 660.000000)">
                <polygon id="Fill-1" fill="#2F2F3B" points="121.017328 0 15 46.9048627 58.1845434 66 121.017328 38.2031723 183.830619 65.9935511 227 46.8855161"></polygon>
                <polygon id="Fill-2" fill="#2F2F3B" points="120.001081 106.453999 0 53 0 91.5395185 120.001081 145 240 91.5395185 240 53"></polygon>
                <polygon id="Fill-3" fill="#F2F2F2" points="58.3783784 67.0980291 15.1351351 47.6470436 0 51.9694849 118.918919 106 240 51.9694849 227.027027 47.6470436 183.783784 67.0980291 121.081081 39"></polygon>
                <polygon id="Path-2" fill-opacity="0.1" fill="#000000" points="121 39 121 106 241 52.6601942 227.888289 47.6470436 184.437765 67.0980291"></polygon>
            </g>
        </g>
    </g>
</svg>